<svg id="visual" viewBox="0 0 900 600" width="900" height="600" xmlns="http://www.w3.org/2000/svg" xmlns:xlink="http://www.w3.org/1999/xlink" version="1.1"><rect x="0" y="0" width="900" height="600" fill="#a60000"></rect><defs><linearGradient id="grad1_0" x1="33.3%" y1="100%" x2="100%" y2="0%"><stop offset="20%" stop-color="#a60000" stop-opacity="1"></stop><stop offset="80%" stop-color="#a60000" stop-opacity="1"></stop></linearGradient></defs><defs><linearGradient id="grad2_0" x1="0%" y1="100%" x2="66.7%" y2="0%"><stop offset="20%" stop-color="#a60000" stop-opacity="1"></stop><stop offset="80%" stop-color="#a60000" stop-opacity="1"></stop></linearGradient></defs><g transform="translate(900, 600)"><path d="M-540.8 0C-473.1 -18.4 -405.4 -36.9 -415.6 -73.3C-425.8 -109.7 -513.8 -164.1 -508.2 -185C-502.6 -205.9 -403.3 -193.3 -376.7 -217.5C-350.1 -241.7 -396.2 -302.8 -393 -329.8C-389.7 -356.7 -337.1 -349.5 -309.8 -369.2C-282.5 -389 -280.5 -435.6 -256.5 -444.3C-232.5 -453 -186.5 -423.7 -156.3 -429.4C-126.1 -435.2 -111.6 -475.9 -88.2 -500.3C-64.8 -524.7 -32.4 -532.8 0 -540.8L0 0Z" fill="#000000"></path></g><g transform="translate(0, 0)"><path d="M540.8 0C519.4 31.2 497.9 62.3 465.8 82.1C433.7 101.9 390.9 110.4 396.6 144.3C402.2 178.3 456.3 237.7 443.4 256C430.5 274.3 350.7 251.4 328.6 275.8C306.6 300.1 342.4 371.7 336.2 400.6C329.9 429.6 281.6 416.1 252.5 437.3C223.4 458.6 213.5 514.8 185 508.2C156.5 501.7 109.3 432.4 75.4 427.4C41.4 422.4 20.7 481.6 0 540.8L0 0Z" fill="#000000"></path></g></svg>