<?xml version="1.0" standalone="no"?>
<svg viewBox="0 0 200 200" xmlns="http://www.w3.org/2000/svg">
  <path fill="#A60000" d="M40,-65.3C47.7,-64.9,46.8,-45.7,53.6,-31.7C60.5,-17.7,75.1,-8.8,68.4,-3.9C61.6,1,33.4,2,21.4,7C9.3,12.1,13.4,21.1,12.5,28C11.6,34.9,5.8,39.7,-2,43.1C-9.8,46.6,-19.6,48.7,-28.7,46.6C-37.8,44.4,-46.2,38,-46.4,29.5C-46.6,21.1,-38.5,10.5,-32.9,3.2C-27.3,-4.1,-24.2,-8.1,-26.7,-21.3C-29.3,-34.5,-37.5,-56.8,-34,-59.5C-30.4,-62.2,-15.2,-45.3,0.5,-46.2C16.2,-47,32.4,-65.6,40,-65.3Z" transform="translate(100 100)" />
</svg>