<svg xmlns="http://www.w3.org/2000/svg" viewBox="0 0 4515.5 2593.95"><defs><style>.cls-1{fill:#fff;stroke:#000;stroke-miterlimit:10;stroke-width:0.48px;}</style></defs><g id="Layer_2" data-name="Layer 2"><g id="Layer_7" data-name="Layer 7"><path class="cls-1" d="M4155.78,745.8l-22.29-205.09a82.26,82.26,0,0,1,.64-22.49l10.4-62.43a82.51,82.51,0,0,0-6.53-48.28l-15.77-34.05L4515.35,66.09,4080,301.93q-9.65-12.17-19.53-23.47l43.68-75s-14-58.19,7-98.92c0,0-96.63,6.86-108.42,116.19q-17.41-15.18-35.09-28.28C3937,115.9,3943.57.94,3943.57.94c-33.64,55.48-45.12,107.65-48.28,145.62-148.72-79.44-285.16-68.71-285.16-68.71-969,208.79-1054.28,623.76-1365.65,823.41l-638.85-746H1095.18l.48.58H.41l211.26,364.2h1189l553.22,660.69H426.74v364.2H1940.81L1358.48,2228.6H210.36L.41,2592.8H1048.25l-.77.91h556.85l766.33-915.19L3137,2593.71h556.86l-606.18-707.84h0s-400.29-677,493.64-1278.89l74.32-180.82c-29.71,83.72-52.58,191.94-16.82,279.65,23.79,57.94,63.7,113.34,123.58,129.71,116.17,31.77,175.22,153.88,195.75,206.65a65.07,65.07,0,0,0,34.36,35.92l116,51.27a65.14,65.14,0,0,0,86.29-34.14l22.9-54a65.17,65.17,0,0,0,3.14-41.63Z"/><path class="cls-1" d="M1681.86,115.58l624.52,689.49c204.69-175.66,434.47-584.48,1175.86-718.49,0,0-537.4,90-1140.54-20.49l506.42,128c-325.14,49.16-917-116.67-917-116.67l513.24,293C2105.44,395.18,1681.86,115.58,1681.86,115.58Z"/></g></g></svg>